PathFileType	4	(X/Y/Z)	\\147.46.242.158\로컬 디스크 (e)\MOCAP Data\Iguana Capture\iguana\Project 2\Capture day 7\Session 2\Take05.trc
DataRate	CameraRate	NumFrames	NumMarkers	Units	OrigDataRate	OrigDataStartFrame	OrigNumFrames
120.0	120.0	10	23	mm	120.0	19	17359
Frame#	Time	ana:head1			ana:head2			ana:bone1			ana:bone2			ana:bone3			ana:tail1			ana:tail2			ana:tail3			ana:tail4			ana:Rforefoot1			ana:Rforefoot2			ana:Rforefoot3			ana:Lforefoot1			ana:Lforefoot2			ana:Lforefoot3			ana:RhindLeg1			ana:RhindLeg2			ana:RhindLeg3			ana:RhindLeg4			ana:LhindLeg1			ana:LhindLeg2			ana:LhindLeg3			ana:LhindLeg4			
		X1	Y1	Z1	X2	Y2	Z2	X3	Y3	Z3	X4	Y4	Z4	X5	Y5	Z5	X6	Y6	Z6	X7	Y7	Z7	X8	Y8	Z8	X9	Y9	Z9	X10	Y10	Z10	X11	Y11	Z11	X12	Y12	Z12	X13	Y13	Z13	X14	Y14	Z14	X15	Y15	Z15	X16	Y16	Z16	X17	Y17	Z17	X18	Y18	Z18	X19	Y19	Z19	X20	Y20	Z20	X21	Y21	Z21	X22	Y22	Z22	X23	Y23	Z23	

7318	60.975	683.59424	-125.85409	61.66324	688.54523	-116.67556	62.05791	695.32788	-96.09994	51.40453	699.08557	-68.45327	48.00278	710.47620	-37.74676	41.19778	727.70154	-10.75418	36.71740	736.08508	23.65602	30.00756	741.43213	66.74767	17.77796	760.01093	101.14355	6.72839	681.06372	-103.48904	39.11894	668.94025	-95.49815	37.43571	661.82178	-107.88022	29.88707	707.55420	-99.68866	32.59610	715.40869	-94.40211	24.55831	714.77808	-90.66737	7.93882	703.91101	-29.83999	32.59747	696.13818	-13.88289	25.38764	709.61432	3.27060	19.12662	702.34637	-1.24779	13.70565	717.69415	-43.84725	35.91505	721.19128	-63.00596	36.17290	736.29761	-66.51368	18.53299	732.04388	-79.02505	18.35880	
7319	60.983	681.59973	-133.62195	62.81247	686.51508	-124.71032	62.47579	694.45068	-107.65220	55.77552	697.45032	-76.19514	48.64512	708.26105	-45.62357	42.35167	725.08905	-18.64133	37.42676	733.79791	16.03965	31.68675	737.75372	59.57936	20.02010	754.27960	94.80876	7.30629	681.94818	-108.72257	35.91422	666.07642	-106.12904	36.77997	661.31653	-119.57735	29.45759	705.08301	-107.08135	33.03468	712.92242	-101.08385	25.07559	714.32220	-95.64767	10.94420	702.31110	-37.03817	35.00120	693.66290	-20.99993	27.88697	706.10010	-2.62354	21.91049	699.86743	-5.64218	16.84843	715.84894	-52.05196	36.74653	718.22675	-70.97293	34.98307	730.93671	-79.18668	15.93530	724.74750	-90.82885	13.92355	
7320	60.992	679.16205	-141.78645	62.75430	684.46771	-131.97359	62.68971	692.03748	-115.25340	55.88641	695.89813	-86.21709	50.99979	706.05487	-53.51055	42.60070	723.39282	-26.44637	38.07677	731.52008	8.33882	32.65049	733.81360	52.50769	21.78862	748.78967	88.27948	8.85524	678.89044	-117.88184	36.62842	662.97754	-117.24136	35.34017	659.41467	-131.07240	27.61969	699.65820	-115.00610	30.86909	707.47705	-108.26633	23.07992	713.64691	-103.58160	15.40051	699.58197	-45.42446	35.40596	691.29340	-28.85466	30.77477	702.05103	-8.97873	24.39220	696.92206	-11.06764	19.65587	713.94867	-59.83518	36.40934	717.14923	-78.50486	32.33619	727.44910	-89.88353	14.36540	720.33563	-97.08789	7.36128	
7321	61.000	676.17944	-149.70747	62.77390	681.10162	-141.19992	63.62637	689.46082	-122.74776	54.91954	694.93878	-92.90586	49.60405	705.23206	-61.75543	43.58847	721.03119	-34.31375	38.13818	729.02277	0.96888	32.30037	731.38245	45.05477	23.61055	743.70209	81.81486	10.87046	675.98596	-126.29713	36.06018	660.18201	-127.40490	33.85735	656.63641	-141.24768	25.64503	699.22974	-122.81599	34.03167	707.31720	-115.92873	26.73444	709.22260	-110.58508	13.09543	698.81787	-53.61946	37.62955	687.91632	-37.80316	34.60823	697.91962	-17.24652	27.64073	693.12384	-17.84438	22.15107	712.25775	-67.18190	34.98527	716.89246	-84.95530	28.91048	727.05426	-92.61777	10.49777	722.17468	-100.19625	2.18631	
7322	61.008	672.78418	-157.52461	62.83150	678.02966	-148.70113	63.25221	686.85852	-131.04579	54.37981	693.45032	-103.34972	50.47236	703.98285	-69.99147	41.92404	718.03827	-41.53271	36.98905	727.38055	-6.46583	32.13834	729.17133	37.89856	24.48841	738.85834	75.63247	12.70819	672.51263	-133.88376	35.26645	656.98737	-137.33257	32.86584	653.93103	-150.33925	23.43294	695.78345	-131.82034	34.07235	704.56207	-125.39613	27.63587	706.94531	-120.04002	13.25840	696.11938	-63.21627	37.30058	683.23462	-48.90301	37.19801	694.22852	-29.01643	30.34097	688.08630	-26.29259	24.35711	710.30170	-74.37072	32.70558	718.14771	-90.56071	25.08085	728.31885	-95.54653	10.34396	722.67218	-102.30887	4.35633	
7323	61.017	669.08264	-164.74664	62.00303	673.91840	-157.08318	63.42488	683.85724	-139.10159	54.13078	692.13647	-109.61855	47.82660	702.67676	-78.08972	41.28292	714.60730	-48.44696	36.92463	723.46753	-12.99422	31.34752	727.15015	30.78126	23.83072	733.12457	70.15958	13.01159	669.08008	-141.16386	34.36543	654.59644	-144.04535	29.73862	651.19464	-158.29666	20.81958	691.94073	-140.69530	33.86892	702.87469	-135.15933	30.13483	705.45856	-132.00363	13.98430	693.90045	-72.51269	37.15575	677.86578	-61.43406	38.95588	689.07074	-42.15779	31.85186	681.42303	-36.73246	26.29709	709.66992	-81.61140	32.53187	718.69550	-96.26082	23.90024	728.47650	-95.63121	11.04369	722.69342	-102.52664	4.39354	
7324	61.025	664.66827	-173.82750	62.81810	669.62952	-164.75949	63.34304	679.91010	-147.20131	53.79880	689.37427	-117.30444	46.94917	700.17407	-85.47703	41.07103	709.76825	-55.02945	37.31396	719.70428	-19.74979	31.35460	725.03687	23.62431	22.91731	729.16974	63.19421	13.51389	665.32178	-148.00801	32.30668	651.80225	-150.28926	25.93400	649.01855	-164.37738	16.73647	688.55365	-149.10373	34.33484	699.49286	-144.90216	30.36694	704.25854	-144.56070	13.78710	691.07837	-80.72177	36.87783	673.86981	-74.95727	40.39828	682.26465	-55.17994	31.47182	672.74762	-49.48418	27.99410	706.93951	-88.21239	31.53534	718.85736	-101.10174	23.57371	728.83221	-96.29825	12.15988	722.78497	-103.11136	4.81586	
7325	61.033	659.77032	-180.67639	61.83168	664.39917	-170.68387	61.00833	674.98499	-153.82500	52.39956	685.64270	-124.86652	46.17088	696.46735	-92.80627	41.15803	703.84961	-61.44498	38.26398	714.45636	-26.40247	32.16896	721.64001	16.68991	22.23328	725.75946	55.94331	11.80549	662.40204	-154.01860	28.80343	649.76660	-157.33136	20.86554	648.23151	-170.03111	10.09750	684.63715	-157.50134	35.43761	696.75610	-154.93152	33.42054	703.49579	-160.27798	19.14324	687.85138	-89.52795	36.93530	669.02740	-87.71364	39.98852	673.33032	-67.54066	31.18701	661.21051	-65.86464	29.56900	704.99646	-95.00005	32.72402	717.65631	-104.94155	22.81046	727.15643	-94.90585	15.47395	722.65515	-100.80129	2.47572	
7326	61.042	654.27161	-187.61394	60.37501	658.81079	-177.29448	59.16450	669.83661	-160.90775	51.60011	681.19824	-132.03758	45.49388	692.21442	-100.06468	41.25801	697.40295	-68.07541	39.00522	708.61237	-32.88638	34.06979	717.35547	9.45381	22.67127	722.64343	47.92912	9.75313	658.55658	-159.99817	26.28138	650.02728	-157.43927	13.80824	648.29028	-170.16898	3.92602	679.98224	-167.75272	38.63247	692.59814	-164.85759	36.13441	700.64215	-173.94743	22.75071	683.63757	-97.32811	36.83754	664.82031	-100.15426	39.25939	662.66089	-79.98080	30.01329	650.69385	-83.34993	29.35944	701.06738	-101.20318	33.35910	716.01617	-108.44471	24.19793	722.95270	-91.77762	10.65264	722.21063	-101.79204	3.40615	
7327	61.050	648.37408	-193.75980	57.65519	653.39172	-184.10060	57.51282	664.88110	-167.78146	50.62894	677.29834	-139.33194	45.09034	687.64734	-107.24554	41.25173	690.74866	-75.00443	39.64247	702.13678	-39.59429	35.25493	712.48932	2.45359	23.37642	719.08435	39.71645	7.90688	655.99957	-162.55672	24.36196	647.88672	-156.45268	12.50746	647.91644	-169.94360	3.72037	674.15442	-175.59981	38.80368	686.12921	-176.25623	39.56622	694.93341	-187.36140	28.22465	679.09570	-105.59772	36.87571	660.69385	-111.50722	38.50134	651.43390	-93.79573	28.91142	641.70721	-101.48524	27.44626	697.12152	-107.44115	33.74828	713.63995	-112.27365	26.02239	720.51898	-94.17161	13.23797	721.30957	-104.69708	6.12084	
